<svg width="26" height="48" viewBox="0 0 26 48" fill="none" xmlns="http://www.w3.org/2000/svg">
<path d="M24.5 11.8519C24.5 14.9205 23.0875 23.8024 20.7503 31.9677C19.5855 36.0372 18.2201 39.8219 16.7406 42.5591C15.9989 43.9313 15.2676 44.9662 14.5747 45.6394C13.8762 46.318 13.3552 46.5 13 46.5C12.6448 46.5 12.1238 46.318 11.4253 45.6394C10.7324 44.9662 10.0011 43.9313 9.25939 42.5591C7.77994 39.8219 6.41454 36.0372 5.2497 31.9677C2.91248 23.8024 1.5 14.9205 1.5 11.8519C1.5 6.2622 6.51518 1.5 13 1.5C19.4848 1.5 24.5 6.2622 24.5 11.8519Z" stroke="#152C5B" stroke-width="3"/>
<circle cx="13" cy="13" r="6" stroke="#5872E5" stroke-width="3" stroke-linecap="round"/>
</svg>
